PathFileType	4	(X/Y/Z)	/Volumes/GoogleDrive/My Drive/Research/Stanford/Projects/Digital Athlete Project/Sprinting/Sprint Simulation/sprinter/subjects/JA1/experimental_data/TRC/static.trc
DataRate	CameraRate	NumFrames	NumMarkers	Units	OrigDataRate	OrigDataStartFrame	OrigNumFrames
250.000000	250.000000	4	57	mm	250.000000	485	646
Frame#	Time	C7			RSH			LSH			MAN			T7			LARM			LELB			LFOREARM			LWR			RARM			RELB			RFOREARM			RWR			RASI			LASI			SACR			P1			P2			P3			LTHLP			LTHLD			LTHAP			LTHAD			LLEPI			LPAT			LMEPI			LTIAP			LTIAD			LTILAT			LLMAL			LMMAL			LHEEL			LMFS			LMFL			LP1MT			LTOE			LP5MT			RTHLP			RTHLD			RTHAP			RTHAD			RLEPI			RPAT			RMEPI			RTIAP			RTIAD			RTILAT			RLMAL			RMMAL			RHEEL			RMFS			RMFL			RP1MT			RTOE			RP5MT			x56			x57			
		X1	Y1	Z1	X2	Y2	Z2	X3	Y3	Z3	X4	Y4	Z4	X5	Y5	Z5	X6	Y6	Z6	X7	Y7	Z7	X8	Y8	Z8	X9	Y9	Z9	X10	Y10	Z10	X11	Y11	Z11	X12	Y12	Z12	X13	Y13	Z13	X14	Y14	Z14	X15	Y15	Z15	X16	Y16	Z16	X17	Y17	Z17	X18	Y18	Z18	X19	Y19	Z19	X20	Y20	Z20	X21	Y21	Z21	X22	Y22	Z22	X23	Y23	Z23	X24	Y24	Z24	X25	Y25	Z25	X26	Y26	Z26	X27	Y27	Z27	X28	Y28	Z28	X29	Y29	Z29	X30	Y30	Z30	X31	Y31	Z31	X32	Y32	Z32	X33	Y33	Z33	X34	Y34	Z34	X35	Y35	Z35	X36	Y36	Z36	X37	Y37	Z37	X38	Y38	Z38	X39	Y39	Z39	X40	Y40	Z40	X41	Y41	Z41	X42	Y42	Z42	X43	Y43	Z43	X44	Y44	Z44	X45	Y45	Z45	X46	Y46	Z46	X47	Y47	Z47	X48	Y48	Z48	X49	Y49	Z49	X50	Y50	Z50	X51	Y51	Z51	X52	Y52	Z52	X53	Y53	Z53	X54	Y54	Z54	X55	Y55	Z55	X56	Y56	Z56	X57	Y57	Z57	
485	1.940000	-693.184082	1569.191528	309.318176	-648.769958	1559.198486	473.484528	-683.846008	1553.938477	153.331161	-536.153442	1484.220215	306.405090	-744.230530	1373.718750	316.162140	-703.152222	1375.860840	36.630558	-721.815674	1251.127075	-20.152063	-674.497131	1143.125366	-106.819191	-653.185791	1019.184692	-167.664307	-667.612793	1389.876953	585.090393	-697.224731	1265.323120	649.731018	-654.982056	1155.783813	734.384949	-636.745728	1033.828613	798.190308	-530.485779	1086.690674	399.972107	-554.710388	1090.622559	184.226547	-727.005249	1134.488403	316.767548	-747.442810	1108.516602	265.526215	-738.350891	1104.759033	371.587433	-772.117493	1050.831177	318.734863	-663.961060	798.393127	105.678719	-660.042358	684.238647	111.914146	-531.277649	783.420776	172.043015	-551.585388	674.377380	178.443466	-654.791260	558.647949	122.120483	-574.861755	559.804260	183.949738	-656.019409	541.661682	248.035217	-640.790222	381.406921	188.267700	-658.141418	243.502426	181.450378	-692.268066	320.783142	108.247002	-701.438293	102.647491	121.755852	-680.369934	113.002792	214.653656	-765.389404	61.457516	166.087387	-600.311035	94.471252	169.710358	-628.542786	69.622459	107.331474	-553.184937	46.318493	202.797806	-497.569702	58.296906	164.213043	-576.604309	35.921242	78.553207	-630.943115	825.616760	513.414795	-634.082520	711.873718	508.270081	-526.637756	782.879150	424.029175	-547.388306	686.541992	420.395905	-650.915466	560.054382	489.179047	-582.446411	550.874268	426.161377	-682.961853	544.106018	365.710175	-656.979492	344.007111	419.380524	-672.191101	218.050354	414.075867	-692.772034	338.841583	506.079163	-694.924744	103.249870	481.869049	-684.021606	112.862793	387.649658	-765.376709	59.458439	441.155762	-592.303223	97.863678	432.318939	-629.211609	69.661896	491.098755	-554.161987	49.046906	388.639008	-493.713837	58.646038	426.220215	-569.810730	40.632366	515.943176	-642.354309	956.191833	-198.588837	-626.547302	965.627014	833.872559
486	1.944000	-693.205200	1569.201904	309.454742	-648.822449	1559.166382	473.534241	-683.884583	1553.939697	153.310623	-536.189514	1484.204468	306.471344	-744.282410	1373.785034	316.195129	-703.182007	1375.886475	36.661594	-721.863037	1251.143311	-20.165165	-674.609253	1143.141968	-106.524895	-653.233582	1019.217346	-167.520157	-667.610229	1389.876099	585.175537	-697.285278	1265.306519	649.745483	-654.972717	1155.794922	734.484436	-636.727051	1033.842285	798.265320	-530.486633	1086.677612	399.964783	-554.804504	1090.600220	184.304993	-727.085022	1134.491821	316.839508	-747.483582	1108.573730	265.547821	-738.472290	1104.905151	371.426941	-772.139709	1050.801636	318.777069	-663.976013	798.410217	105.689484	-660.061951	684.250244	111.923630	-531.242859	783.401855	171.909698	-551.668579	674.369080	178.602707	-654.823853	558.623657	122.170860	-574.860291	559.801819	184.008575	-656.012085	541.627136	248.015106	-640.790771	381.410919	188.262405	-658.117004	243.518356	181.340927	-692.262573	320.836029	108.249847	-701.445190	102.714371	121.818947	-680.227661	113.078445	214.823105	-765.370239	61.454044	166.072037	-600.250305	94.473610	169.579102	-628.547058	69.565681	107.262283	-553.190369	46.311386	202.765610	-497.524811	58.349270	164.099701	-576.722839	35.906403	78.692009	-630.956726	825.625671	513.411255	-634.040405	711.858826	508.359314	-526.656555	782.871399	424.123718	-547.301697	686.428406	420.088379	-650.887573	560.046753	489.252838	-582.491211	550.927551	426.128815	-682.966553	544.104675	365.746307	-656.975769	344.033630	419.360809	-672.373291	218.083786	414.117462	-692.749512	338.847443	506.103973	-694.861938	103.318253	481.969635	-683.888062	112.880203	387.563019	-765.274109	59.633091	441.321777	-592.343933	97.908424	432.335846	-629.220642	69.660583	491.081421	-554.175293	49.100189	388.825653	-493.682434	58.693958	426.279816	-569.815063	40.612965	515.948181	-642.369385	956.232605	-198.520996	-626.523438	965.642090	833.933838
487	1.948000	-693.344788	1569.213623	309.878326	-648.837280	1559.167236	473.568451	-683.922607	1553.939087	153.349503	-536.264038	1484.270996	306.616333	-744.298767	1373.696777	316.185120	-703.183472	1375.852783	36.674332	-721.926697	1251.085693	-20.069630	-674.643372	1143.134277	-106.517052	-653.306213	1019.227783	-167.505661	-667.679199	1389.889282	585.165955	-697.382507	1265.237915	649.766052	-654.971619	1155.745239	734.448364	-636.721680	1033.816895	798.243042	-530.517456	1086.696167	400.021423	-554.810486	1090.636230	184.323792	-727.033081	1134.460083	316.904510	-747.472717	1108.484619	265.587891	-738.306030	1104.787964	371.670715	-772.390137	1050.813721	319.130371	-664.003235	798.393311	105.713226	-660.096863	684.268066	111.903152	-531.319031	783.431580	172.101379	-551.641663	674.345337	178.437531	-654.858093	558.622803	122.233307	-574.898132	559.796753	183.965790	-656.067505	541.609375	247.996750	-640.836121	381.425903	188.287994	-658.099182	243.501984	181.396805	-692.271240	320.822968	108.240746	-701.426331	102.637726	121.758301	-680.287659	113.000908	214.684891	-765.383728	61.510040	166.133499	-600.289307	94.457924	169.649811	-628.538452	69.569633	107.289764	-553.207092	46.306133	202.798889	-497.477539	58.283798	164.163498	-576.761719	35.930145	78.649086	-630.971497	825.623779	513.460754	-634.107361	711.880554	508.361237	-526.653992	782.883850	424.062195	-547.413452	686.461670	420.205780	-650.891907	560.043335	489.258606	-582.489868	550.893616	426.204803	-682.976440	544.091614	365.747986	-656.978333	344.022217	419.351898	-672.241028	218.040451	413.998169	-692.779724	338.842255	506.087555	-695.006836	103.182526	481.821625	-684.026855	112.867119	387.661865	-765.331970	59.654621	441.222809	-592.364014	97.895477	432.221954	-629.280457	69.620140	490.981293	-554.167908	49.045330	388.714569	-493.741913	58.666912	426.251953	-569.787720	40.644699	515.993591	-642.461609	956.252319	-198.503128	-626.515625	965.630188	833.919312
488	1.952000	-693.300598	1569.214844	309.475342	-648.853271	1559.157959	473.538361	-683.945496	1553.957764	153.408051	-536.258667	1484.297974	306.674408	-744.332642	1373.761108	316.251373	-703.226257	1375.858154	36.745770	-721.965332	1251.048462	-19.920465	-674.771240	1143.163696	-106.440208	-653.361267	1019.229431	-167.466629	-667.767517	1389.878418	585.157227	-697.308289	1265.270020	649.798523	-655.004089	1155.733032	734.427673	-636.735535	1033.797119	798.240662	-530.520874	1086.689453	400.012299	-554.814148	1090.642090	184.301239	-727.043457	1134.408936	316.937653	-747.497375	1108.479248	265.617310	-738.427734	1104.848267	371.664276	-772.211121	1050.758179	319.059296	-664.006042	798.388977	105.710327	-660.096436	684.265625	111.898407	-531.348083	783.401001	172.025864	-551.689026	674.360168	178.550034	-654.880981	558.696533	122.258408	-574.900757	559.830505	183.999725	-656.089111	541.644043	248.066666	-640.791748	381.420929	188.226395	-658.174133	243.497467	181.529678	-692.294128	320.830261	108.288734	-701.470886	102.635353	121.798027	-680.394470	113.051064	214.673599	-765.376038	61.465759	166.049179	-600.280579	94.463661	169.596176	-628.553162	69.591331	107.289085	-553.226807	46.268696	202.761795	-497.487335	58.339111	164.147415	-576.682007	35.878639	78.652237	-630.985535	825.629211	513.447144	-634.116760	711.854431	508.336243	-526.681091	782.878662	424.090851	-547.418152	686.431091	420.223755	-650.899292	560.010315	489.205200	-582.481018	550.910950	426.169495	-682.986755	544.087158	365.755646	-656.997925	344.035950	419.401093	-672.332031	217.984482	414.078522	-692.757263	338.831909	506.095947	-695.047546	103.211693	481.785126	-683.873596	112.889633	387.517120	-765.315369	59.530731	441.107697	-592.381836	97.929314	432.272980	-629.206787	69.621933	491.112305	-554.193665	48.989445	388.704346	-493.716766	58.629723	426.200317	-569.833069	40.618904	515.936584	-642.479675	956.239807	-198.483307	-626.519104	965.606262	833.927185
